1<?xml version="1.0" encoding="utf-8"?>
<!-- Generator: Adobe Illustrator 27.5.0, SVG Export Plug-In . SVG Version: 6.00 Build 0)  -->
<svg version="1.1" xmlns="http://www.w3.org/2000/svg" xmlns:xlink="http://www.w3.org/1999/xlink" x="0px" y="0px"
	 viewBox="0 0 500 500" style="enable-background:new 0 0 500 500;" xml:space="preserve">
<g id="BACKGROUND">
	<g>
		<g>
			<rect style="fill:#FFFFFF;" width="500" height="500"/>
		</g>
	</g>
</g>
<g id="OBJECTS">
	<g>
		<path style="fill:#BDDBFF;" d="M139.739,92.803c0,0,44.266-26.106,85.127,4.54c40.861,30.646,44.266,115.773,95.342,137.339
			c51.076,21.565,107.828,10.215,131.663,52.211c23.836,41.996-4.54,85.127-54.481,98.747H90.56c0,0-42.758-1.135-50.703-44.266
			c-7.945-43.131,21.565-60.157,35.186-89.667C88.663,222.196,65.962,126.854,139.739,92.803z"/>
		<linearGradient id="SVGID_1_" gradientUnits="userSpaceOnUse" x1="65.0855" y1="351.2028" x2="94.406" y2="351.2028">
			<stop  offset="0" style="stop-color:#6060E7"/>
			<stop  offset="1" style="stop-color:#8182EE"/>
		</linearGradient>
		<path style="fill:url(#SVGID_1_);" d="M79.746,336.543c-8.097,0-14.66,6.564-14.66,14.66c0,8.097,6.564,14.66,14.66,14.66
			c8.097,0,14.66-6.564,14.66-14.66C94.406,343.106,87.842,336.543,79.746,336.543z M79.746,359.144
			c-4.386,0-7.941-3.555-7.941-7.941c0-4.386,3.555-7.941,7.941-7.941c4.386,0,7.941,3.555,7.941,7.941
			C87.687,355.589,84.131,359.144,79.746,359.144z"/>
		
			<ellipse transform="matrix(0.8145 -0.5802 0.5802 0.8145 -33.6262 266.5922)" style="fill:none;stroke:#A1C2FF;stroke-width:2;stroke-linecap:round;stroke-linejoin:round;stroke-miterlimit:10;" cx="400.039" cy="185.875" rx="25.349" ry="25.349"/>
		<g>
			<g>
				<path style="fill:#E7E8FA;" d="M393.226,323.271h-284.19c-5.908,0-10.698-4.79-10.698-10.698V138.617
					c0-5.908,4.79-10.698,10.698-10.698h284.19c5.908,0,10.698,4.79,10.698,10.698v173.956
					C403.924,318.482,399.134,323.271,393.226,323.271z"/>
				
					<linearGradient id="SVGID_00000113322930228318978810000016605321015788368276_" gradientUnits="userSpaceOnUse" x1="111.0919" y1="219.1232" x2="391.1701" y2="219.1232">
					<stop  offset="0" style="stop-color:#6060E7"/>
					<stop  offset="1" style="stop-color:#8182EE"/>
				</linearGradient>
				<path style="fill:url(#SVGID_00000113322930228318978810000016605321015788368276_);" d="M387.296,300.634H114.966
					c-2.14,0-3.874-1.735-3.874-3.875V141.487c0-2.14,1.735-3.875,3.874-3.875h272.329c2.14,0,3.874,1.735,3.874,3.875v155.272
					C391.17,298.899,389.435,300.634,387.296,300.634z"/>
				<path style="fill:#A1C2FF;" d="M98.362,313.05c0.251,5.685,4.926,10.221,10.674,10.221h284.19
					c5.747,0,10.423-4.536,10.674-10.221H98.362z"/>
			</g>
			<path style="fill:#A1C2FF;" d="M454.166,416.063H47.198c-2.416,0-4.375-1.958-4.375-4.375v-5.393h416.615v4.495
				C459.439,413.702,457.078,416.063,454.166,416.063z"/>
			<path style="fill:#E7E8FA;" d="M397.705,323.435H104.556c-3.746,0-7.252,1.847-9.371,4.936l-51.522,75.131
				c-2.159,3.148,0.095,7.427,3.912,7.427h407.112c3.817,0,6.071-4.279,3.912-7.427l-51.523-75.131
				C404.958,325.281,401.452,323.435,397.705,323.435z"/>
			
				<linearGradient id="SVGID_00000013882575374689345000000001356811048366636941_" gradientUnits="userSpaceOnUse" x1="14.7408" y1="564.2557" x2="405.4433" y2="251.6938">
				<stop  offset="0" style="stop-color:#434A5B"/>
				<stop  offset="1" style="stop-color:#6164A1"/>
			</linearGradient>
			<path style="fill:url(#SVGID_00000013882575374689345000000001356811048366636941_);" d="M143.584,372.367H280.1
				c1.482,0,2.859,0.769,3.637,2.031l8.489,13.776c1.354,2.197,3.75,3.535,6.33,3.535h110.315c1.907,0,3.075-2.092,2.074-3.715
				l-32.343-52.483c-1.539-2.497-4.262-4.017-7.195-4.017h-242.37c-2.664,0-5.131,1.405-6.491,3.697l-32.738,55.201
				c-0.345,0.582,0.074,1.319,0.751,1.319h34.885c2.625,0,5.056-1.385,6.395-3.643l8.069-13.606
				C140.679,373.162,142.075,372.367,143.584,372.367z"/>
			
				<linearGradient id="SVGID_00000116225397017774224820000001543341741472755391_" gradientUnits="userSpaceOnUse" x1="4.8269" y1="551.8631" x2="395.5302" y2="239.3006">
				<stop  offset="0" style="stop-color:#434A5B"/>
				<stop  offset="1" style="stop-color:#6164A1"/>
			</linearGradient>
			<path style="fill:url(#SVGID_00000116225397017774224820000001543341741472755391_);" d="M288.709,387.786l-7.029-11.405
				c-0.468-0.76-1.297-1.223-2.19-1.223H144.206c-0.908,0-1.749,0.479-2.213,1.26l-6.764,11.405
				c-1.017,1.715,0.219,3.885,2.213,3.885h149.078C288.532,391.708,289.765,389.5,288.709,387.786z"/>
			<path style="fill:#E7E8FA;" d="M200.937,127.92l3.916,8.81c2.333,5.249,7.538,8.632,13.282,8.632h65.994
				c5.744,0,10.949-3.383,13.282-8.632l3.916-8.81H200.937z"/>
		</g>
		<g>
			<g>
				<path style="fill:#A1C2FF;" d="M299.119,216.021h-52.68c-3.373,0-6.108-2.735-6.108-6.108v-52.68
					c0-3.373,2.735-6.108,6.108-6.108h52.68c3.373,0,6.108,2.735,6.108,6.108v52.68
					C305.226,213.286,302.492,216.021,299.119,216.021z"/>
				<g>
					<defs>
						<path id="SVGID_00000172416378175343907640000010186549729973880966_" d="M299.119,216.021h-52.68
							c-3.373,0-6.108-2.735-6.108-6.108v-52.68c0-3.373,2.735-6.108,6.108-6.108h52.68c3.373,0,6.108,2.735,6.108,6.108v52.68
							C305.226,213.286,302.492,216.021,299.119,216.021z"/>
					</defs>
					<clipPath id="SVGID_00000066484511617052962060000017250616183282638747_">
						<use xlink:href="#SVGID_00000172416378175343907640000010186549729973880966_"  style="overflow:visible;"/>
					</clipPath>
					<g style="clip-path:url(#SVGID_00000066484511617052962060000017250616183282638747_);">
						
							<linearGradient id="SVGID_00000145757823603366466970000002619304285203011462_" gradientUnits="userSpaceOnUse" x1="244.1083" y1="244.4841" x2="304.0663" y2="179.6158">
							<stop  offset="0" style="stop-color:#434A5B"/>
							<stop  offset="1" style="stop-color:#6164A1"/>
						</linearGradient>
						<path style="fill:url(#SVGID_00000145757823603366466970000002619304285203011462_);" d="M272.779,193.799
							c-13.504,0-24.451,10.947-24.451,24.451h48.902C297.23,204.747,286.283,193.799,272.779,193.799z"/>
						
							<linearGradient id="SVGID_00000131348177104003447600000011140359004322877850_" gradientUnits="userSpaceOnUse" x1="254.4" y1="222.3529" x2="293.1502" y2="180.4292">
							<stop  offset="0" style="stop-color:#FF8D02"/>
							<stop  offset="1" style="stop-color:#FFC757"/>
						</linearGradient>
						<path style="fill:url(#SVGID_00000131348177104003447600000011140359004322877850_);" d="M292.718,202.432
							c-4.804-5.66-11.965-9.256-19.971-9.256c-7.497,0-14.253,3.155-19.026,8.204c4.306,6.378,11.601,10.573,19.876,10.573
							C281.407,211.953,288.343,208.215,292.718,202.432z"/>
						
							<linearGradient id="SVGID_00000087373057785347882740000003323509491771073167_" gradientUnits="userSpaceOnUse" x1="265.002" y1="209.1856" x2="281.2626" y2="191.5933">
							<stop  offset="0" style="stop-color:#9A2802"/>
							<stop  offset="1" style="stop-color:#FF5057"/>
						</linearGradient>
						<path style="fill:url(#SVGID_00000087373057785347882740000003323509491771073167_);" d="M291.138,200.741
							c-0.614-0.607-1.258-1.182-1.929-1.726c-4.001,4.428-9.599,6.938-15.638,6.938c-6.351,0-12.302-2.85-16.298-7.702
							c-0.696,0.512-1.366,1.056-2.008,1.633c4.485,5.453,11.17,8.658,18.306,8.658
							C280.357,208.542,286.646,205.719,291.138,200.741z"/>
						
							<linearGradient id="SVGID_00000116947776564932668530000009502928529659674016_" gradientUnits="userSpaceOnUse" x1="268.5408" y1="195.6917" x2="277.0532" y2="186.4822">
							<stop  offset="0" style="stop-color:#FFB58E"/>
							<stop  offset="0.3282" style="stop-color:#FEB38B"/>
							<stop  offset="0.5908" style="stop-color:#FCAD81"/>
							<stop  offset="0.8298" style="stop-color:#F9A370"/>
							<stop  offset="1" style="stop-color:#F5985F"/>
						</linearGradient>
						<path style="fill:url(#SVGID_00000116947776564932668530000009502928529659674016_);" d="M272.842,198.259L272.842,198.259
							c-2.15,0-3.892-1.743-3.892-3.892v-8.18h7.785v8.18C276.734,196.516,274.991,198.259,272.842,198.259z"/>
						<path style="fill:#FF7253;" d="M268.949,191.278c0.853,1.237,2.276,2.05,3.892,2.05c1.616,0,3.04-0.813,3.892-2.05v-5.091
							h-7.785V191.278z"/>
						<g>
							
								<linearGradient id="SVGID_00000161599011688867582430000001055807447339197621_" gradientUnits="userSpaceOnUse" x1="291.0597" y1="170.6716" x2="284.6501" y2="179.4262">
								<stop  offset="0" style="stop-color:#FFB58E"/>
								<stop  offset="0.3282" style="stop-color:#FEB38B"/>
								<stop  offset="0.5908" style="stop-color:#FCAD81"/>
								<stop  offset="0.8298" style="stop-color:#F9A370"/>
								<stop  offset="1" style="stop-color:#F5985F"/>
							</linearGradient>
							
								<circle style="fill:url(#SVGID_00000161599011688867582430000001055807447339197621_);" cx="285.207" cy="178.666" r="3.205"/>
							
								<linearGradient id="SVGID_00000001653310313780606250000013912189796036287109_" gradientUnits="userSpaceOnUse" x1="266.203" y1="170.6716" x2="259.7933" y2="179.4262">
								<stop  offset="0" style="stop-color:#FFB58E"/>
								<stop  offset="0.3282" style="stop-color:#FEB38B"/>
								<stop  offset="0.5908" style="stop-color:#FCAD81"/>
								<stop  offset="0.8298" style="stop-color:#F9A370"/>
								<stop  offset="1" style="stop-color:#F5985F"/>
							</linearGradient>
							
								<circle style="fill:url(#SVGID_00000001653310313780606250000013912189796036287109_);" cx="260.35" cy="178.666" r="3.205"/>
							
								<linearGradient id="SVGID_00000100352362038734275400000009213041538013590145_" gradientUnits="userSpaceOnUse" x1="272.7786" y1="185.2426" x2="272.7786" y2="159.1025">
								<stop  offset="0" style="stop-color:#434A5B"/>
								<stop  offset="1" style="stop-color:#6164A1"/>
							</linearGradient>
							<path style="fill:url(#SVGID_00000100352362038734275400000009213041538013590145_);" d="M271.709,158.001l-19.194,8.329
								c-0.655,0.284-0.655,1.214,0,1.498l20.264,8.793l20.264-8.793c0.655-0.284,0.655-1.214,0-1.498l-19.194-8.329
								C273.166,157.705,272.391,157.705,271.709,158.001z"/>
							
								<linearGradient id="SVGID_00000011747878358254657270000013237076724424252558_" gradientUnits="userSpaceOnUse" x1="263.7341" y1="166.2137" x2="281.6602" y2="190.8101">
								<stop  offset="0" style="stop-color:#FFB58E"/>
								<stop  offset="0.3282" style="stop-color:#FEB38B"/>
								<stop  offset="0.5908" style="stop-color:#FCAD81"/>
								<stop  offset="0.8298" style="stop-color:#F9A370"/>
								<stop  offset="1" style="stop-color:#F5985F"/>
							</linearGradient>
							
								<circle style="fill:url(#SVGID_00000011747878358254657270000013237076724424252558_);" cx="272.866" cy="178.744" r="12.35"/>
							
								<linearGradient id="SVGID_00000014606788150191381790000003117766209756785811_" gradientUnits="userSpaceOnUse" x1="272.5694" y1="167.019" x2="275.0707" y2="183.9028">
								<stop  offset="0" style="stop-color:#B62C01"/>
								<stop  offset="1" style="stop-color:#7C0C0A"/>
							</linearGradient>
							<path style="fill:url(#SVGID_00000014606788150191381790000003117766209756785811_);" d="M262.314,172.275
								c0,0,7.338,8.344,22.659,4.123c0,0,0.019-1.524-1.554-4.123C283.419,172.275,273.579,167.214,262.314,172.275z"/>
						</g>
						
							<linearGradient id="SVGID_00000080908625767880261630000017599779055002500796_" gradientUnits="userSpaceOnUse" x1="272.8735" y1="162.5048" x2="272.8735" y2="176.9703">
							<stop  offset="0" style="stop-color:#39314F"/>
							<stop  offset="1" style="stop-color:#475377"/>
						</linearGradient>
						<path style="fill:url(#SVGID_00000080908625767880261630000017599779055002500796_);" d="M283.433,166.753
							c0-1.242-4.725-2.249-10.553-2.249s-10.553,1.007-10.553,2.249h-0.013v5.522h21.105v-5.46
							C283.421,166.794,283.433,166.774,283.433,166.753z"/>
					</g>
				</g>
			</g>
			<g>
				<path style="fill:#A4E3C2;" d="M370.675,216.021h-52.68c-3.373,0-6.108-2.735-6.108-6.108v-52.68
					c0-3.373,2.735-6.108,6.108-6.108h52.68c3.373,0,6.108,2.735,6.108,6.108v52.68
					C376.783,213.286,374.048,216.021,370.675,216.021z"/>
				<g>
					<defs>
						<path id="SVGID_00000057115747707357820460000017723151642182901653_" d="M370.675,216.021h-52.68
							c-3.373,0-6.108-2.735-6.108-6.108v-52.68c0-3.373,2.735-6.108,6.108-6.108h52.68c3.373,0,6.108,2.735,6.108,6.108v52.68
							C376.783,213.286,374.048,216.021,370.675,216.021z"/>
					</defs>
					<clipPath id="SVGID_00000011003778571779123720000007608137657589315232_">
						<use xlink:href="#SVGID_00000057115747707357820460000017723151642182901653_"  style="overflow:visible;"/>
					</clipPath>
					<g style="clip-path:url(#SVGID_00000011003778571779123720000007608137657589315232_);">
						<g>
							<circle style="fill:#52372E;" cx="333.556" cy="174.423" r="2.307"/>
							<circle style="fill:#52372E;" cx="329.981" cy="176.038" r="2.307"/>
							<path style="fill:#52372E;" d="M333.787,182.15c0,1.274-1.033,2.307-2.307,2.307c-1.274,0-2.307-1.033-2.307-2.307
								c0-1.274,1.033-2.307,2.307-2.307C332.754,179.844,333.787,180.876,333.787,182.15z"/>
							<circle style="fill:#52372E;" cx="333.556" cy="184.803" r="2.307"/>
						</g>
						<g>
							<path style="fill:#52372E;" d="M353.048,174.423c0,1.274,1.033,2.307,2.307,2.307c1.274,0,2.307-1.033,2.307-2.307
								c0-1.274-1.033-2.307-2.307-2.307C354.081,172.116,353.048,173.149,353.048,174.423z"/>
							<path style="fill:#52372E;" d="M356.624,176.038c0,1.274,1.033,2.307,2.307,2.307c1.274,0,2.307-1.033,2.307-2.307
								s-1.033-2.307-2.307-2.307C357.656,173.731,356.624,174.764,356.624,176.038z"/>
							<circle style="fill:#52372E;" cx="357.431" cy="182.15" r="2.307"/>
							<path style="fill:#52372E;" d="M353.048,184.803c0,1.274,1.033,2.307,2.307,2.307c1.274,0,2.307-1.033,2.307-2.307
								c0-1.274-1.033-2.307-2.307-2.307C354.081,182.496,353.048,183.529,353.048,184.803z"/>
						</g>
						<g>
							<g>
								
									<linearGradient id="SVGID_00000173875144355312473640000011846140056617258400_" gradientUnits="userSpaceOnUse" x1="315.6646" y1="244.4842" x2="375.6227" y2="179.6157">
									<stop  offset="0" style="stop-color:#434A5B"/>
									<stop  offset="1" style="stop-color:#6164A1"/>
								</linearGradient>
								<path style="fill:url(#SVGID_00000173875144355312473640000011846140056617258400_);" d="M344.335,193.799
									c-13.504,0-24.451,10.947-24.451,24.451h48.902C368.786,204.747,357.839,193.799,344.335,193.799z"/>
								
									<linearGradient id="SVGID_00000135682683516542402520000010071279435537889935_" gradientUnits="userSpaceOnUse" x1="325.9564" y1="222.3529" x2="364.7066" y2="180.4292">
									<stop  offset="0" style="stop-color:#FF8D02"/>
									<stop  offset="1" style="stop-color:#FFC757"/>
								</linearGradient>
								<path style="fill:url(#SVGID_00000135682683516542402520000010071279435537889935_);" d="M364.274,202.432
									c-4.804-5.66-11.965-9.256-19.971-9.256c-7.497,0-14.253,3.155-19.026,8.204c4.306,6.378,11.601,10.573,19.876,10.573
									C352.964,211.953,359.899,208.215,364.274,202.432z"/>
								
									<linearGradient id="SVGID_00000003815965672212231980000007439481198961997195_" gradientUnits="userSpaceOnUse" x1="336.5583" y1="209.1856" x2="352.819" y2="191.5933">
									<stop  offset="0" style="stop-color:#9A2802"/>
									<stop  offset="1" style="stop-color:#FF5057"/>
								</linearGradient>
								<path style="fill:url(#SVGID_00000003815965672212231980000007439481198961997195_);" d="M362.695,200.741
									c-0.614-0.607-1.258-1.182-1.929-1.726c-4.001,4.428-9.599,6.938-15.638,6.938c-6.351,0-12.302-2.85-16.298-7.702
									c-0.696,0.512-1.366,1.056-2.008,1.633c4.485,5.453,11.17,8.658,18.306,8.658
									C351.914,208.542,358.203,205.719,362.695,200.741z"/>
								
									<linearGradient id="SVGID_00000121969653666844005770000007562899541566594482_" gradientUnits="userSpaceOnUse" x1="340.0972" y1="195.6917" x2="348.6095" y2="186.4822">
									<stop  offset="0" style="stop-color:#B6614A"/>
									<stop  offset="0.3173" style="stop-color:#B35F47"/>
									<stop  offset="0.5711" style="stop-color:#A9593D"/>
									<stop  offset="0.8022" style="stop-color:#984E2D"/>
									<stop  offset="1" style="stop-color:#834119"/>
								</linearGradient>
								<path style="fill:url(#SVGID_00000121969653666844005770000007562899541566594482_);" d="M344.398,198.259L344.398,198.259
									c-2.15,0-3.892-1.743-3.892-3.892v-8.18h7.785v8.18C348.29,196.516,346.548,198.259,344.398,198.259z"/>
								<path style="fill:#7F4353;" d="M340.506,191.278c0.853,1.237,2.276,2.05,3.892,2.05c1.616,0,3.039-0.813,3.892-2.05v-5.091
									h-7.785V191.278z"/>
								<g>
									
										<linearGradient id="SVGID_00000085246984472668831800000005650191655100184216_" gradientUnits="userSpaceOnUse" x1="362.6161" y1="170.6716" x2="356.2065" y2="179.4262">
										<stop  offset="0" style="stop-color:#B6614A"/>
										<stop  offset="0.3173" style="stop-color:#B35F47"/>
										<stop  offset="0.5711" style="stop-color:#A9593D"/>
										<stop  offset="0.8022" style="stop-color:#984E2D"/>
										<stop  offset="1" style="stop-color:#834119"/>
									</linearGradient>
									
										<circle style="fill:url(#SVGID_00000085246984472668831800000005650191655100184216_);" cx="356.763" cy="178.666" r="3.205"/>
									
										<linearGradient id="SVGID_00000104683390310688998460000002662055906555201709_" gradientUnits="userSpaceOnUse" x1="337.7594" y1="170.6716" x2="331.3497" y2="179.4262">
										<stop  offset="0" style="stop-color:#B6614A"/>
										<stop  offset="0.3173" style="stop-color:#B35F47"/>
										<stop  offset="0.5711" style="stop-color:#A9593D"/>
										<stop  offset="0.8022" style="stop-color:#984E2D"/>
										<stop  offset="1" style="stop-color:#834119"/>
									</linearGradient>
									
										<circle style="fill:url(#SVGID_00000104683390310688998460000002662055906555201709_);" cx="331.907" cy="178.666" r="3.205"/>
									
										<linearGradient id="SVGID_00000048485887751153251890000011160429729005863044_" gradientUnits="userSpaceOnUse" x1="344.335" y1="185.2426" x2="344.335" y2="159.1025">
										<stop  offset="0" style="stop-color:#434A5B"/>
										<stop  offset="1" style="stop-color:#6164A1"/>
									</linearGradient>
									<path style="fill:url(#SVGID_00000048485887751153251890000011160429729005863044_);" d="M343.265,158.001l-19.194,8.329
										c-0.655,0.284-0.655,1.214,0,1.498l20.264,8.793l20.264-8.793c0.655-0.284,0.655-1.214,0-1.498l-19.194-8.329
										C344.722,157.705,343.948,157.705,343.265,158.001z"/>
									
										<linearGradient id="SVGID_00000088825401410604536380000000584417159567049885_" gradientUnits="userSpaceOnUse" x1="335.2905" y1="166.2137" x2="353.2166" y2="190.81">
										<stop  offset="0" style="stop-color:#B6614A"/>
										<stop  offset="0.3173" style="stop-color:#B35F47"/>
										<stop  offset="0.5711" style="stop-color:#A9593D"/>
										<stop  offset="0.8022" style="stop-color:#984E2D"/>
										<stop  offset="1" style="stop-color:#834119"/>
									</linearGradient>
									
										<circle style="fill:url(#SVGID_00000088825401410604536380000000584417159567049885_);" cx="344.423" cy="178.744" r="12.35"/>
								</g>
							</g>
							
								<linearGradient id="SVGID_00000173154411779928035750000017553899801286396557_" gradientUnits="userSpaceOnUse" x1="344.4299" y1="162.5048" x2="344.4299" y2="176.9703">
								<stop  offset="0" style="stop-color:#39314F"/>
								<stop  offset="1" style="stop-color:#475377"/>
							</linearGradient>
							<path style="fill:url(#SVGID_00000173154411779928035750000017553899801286396557_);" d="M354.99,166.753
								c0-1.242-4.725-2.249-10.553-2.249s-10.553,1.007-10.553,2.249h-0.013v5.522h21.105v-5.46
								C354.978,166.794,354.99,166.774,354.99,166.753z"/>
						</g>
					</g>
				</g>
			</g>
			<g>
				<path style="fill:#A4E3C2;" d="M299.119,288.605h-52.68c-3.373,0-6.108-2.735-6.108-6.108v-52.68
					c0-3.373,2.735-6.108,6.108-6.108h52.68c3.373,0,6.108,2.735,6.108,6.108v52.68
					C305.226,285.871,302.492,288.605,299.119,288.605z"/>
				<g>
					<defs>
						<path id="SVGID_00000030450726114407689880000015991646441694655419_" d="M299.119,288.605h-52.68
							c-3.373,0-6.108-2.735-6.108-6.108v-52.68c0-3.373,2.735-6.108,6.108-6.108h52.68c3.373,0,6.108,2.735,6.108,6.108v52.68
							C305.226,285.871,302.492,288.605,299.119,288.605z"/>
					</defs>
					<clipPath id="SVGID_00000181079574021687728690000006665988111363135405_">
						<use xlink:href="#SVGID_00000030450726114407689880000015991646441694655419_"  style="overflow:visible;"/>
					</clipPath>
					<g style="clip-path:url(#SVGID_00000181079574021687728690000006665988111363135405_);">
						
							<linearGradient id="SVGID_00000133515748603923242720000007738159350331738531_" gradientUnits="userSpaceOnUse" x1="272.6835" y1="236.8692" x2="284.6784" y2="277.775">
							<stop  offset="0" style="stop-color:#C56B01"/>
							<stop  offset="1" style="stop-color:#B32C0A"/>
						</linearGradient>
						<path style="fill:url(#SVGID_00000133515748603923242720000007738159350331738531_);" d="M283.419,244.86
							c0,0,3.071,0.994,3.839,6.838c0.769,5.844-1.077,7.843,3.383,11.226c4.46,3.383,6.613,15.071-0.769,19.53
							c-7.382,4.46-15.071,2.922-15.071,2.922v-41.675L283.419,244.86z"/>
						
							<linearGradient id="SVGID_00000118365710548093739550000009658590810565858953_" gradientUnits="userSpaceOnUse" x1="335.2511" y1="238.8601" x2="355.7041" y2="286.071" gradientTransform="matrix(-1 0 0 1 612.2987 0)">
							<stop  offset="0" style="stop-color:#C56B01"/>
							<stop  offset="1" style="stop-color:#B32C0A"/>
						</linearGradient>
						<path style="fill:url(#SVGID_00000118365710548093739550000009658590810565858953_);" d="M262.105,244.86
							c0,0-3.07,0.994-3.839,6.838c-0.769,5.844,1.076,7.843-3.383,11.226c-4.46,3.383-6.613,15.071,0.769,19.53
							c7.382,4.46,15.07,2.922,15.07,2.922v-41.675L262.105,244.86z"/>
						<g>
							
								<linearGradient id="SVGID_00000060008725648088299200000012534040326920331661_" gradientUnits="userSpaceOnUse" x1="244.1083" y1="317.0687" x2="304.0663" y2="252.2004">
								<stop  offset="0" style="stop-color:#434A5B"/>
								<stop  offset="1" style="stop-color:#6164A1"/>
							</linearGradient>
							<path style="fill:url(#SVGID_00000060008725648088299200000012534040326920331661_);" d="M272.779,266.384
								c-13.504,0-24.451,10.947-24.451,24.451h48.902C297.23,277.331,286.283,266.384,272.779,266.384z"/>
							
								<linearGradient id="SVGID_00000142896164253578633340000013640552716309095054_" gradientUnits="userSpaceOnUse" x1="254.4" y1="294.9375" x2="293.1502" y2="253.0137">
								<stop  offset="0" style="stop-color:#FF8D02"/>
								<stop  offset="1" style="stop-color:#FFC757"/>
							</linearGradient>
							<path style="fill:url(#SVGID_00000142896164253578633340000013640552716309095054_);" d="M292.718,275.017
								c-4.804-5.66-11.965-9.256-19.971-9.256c-7.497,0-14.253,3.155-19.026,8.204c4.306,6.378,11.601,10.573,19.876,10.573
								C281.407,284.538,288.343,280.8,292.718,275.017z"/>
							
								<linearGradient id="SVGID_00000018239308630577681690000014786104673518291104_" gradientUnits="userSpaceOnUse" x1="265.002" y1="281.7702" x2="281.2626" y2="264.1779">
								<stop  offset="0" style="stop-color:#9A2802"/>
								<stop  offset="1" style="stop-color:#FF5057"/>
							</linearGradient>
							<path style="fill:url(#SVGID_00000018239308630577681690000014786104673518291104_);" d="M291.138,273.325
								c-0.614-0.607-1.258-1.182-1.929-1.726c-4.001,4.427-9.599,6.938-15.638,6.938c-6.351,0-12.302-2.85-16.298-7.702
								c-0.696,0.512-1.366,1.056-2.008,1.633c4.485,5.453,11.17,8.658,18.306,8.658
								C280.357,281.127,286.646,278.303,291.138,273.325z"/>
							
								<linearGradient id="SVGID_00000165220818762335449510000003367370786407292580_" gradientUnits="userSpaceOnUse" x1="268.5408" y1="268.2763" x2="277.0532" y2="259.0668">
								<stop  offset="0" style="stop-color:#FFB58E"/>
								<stop  offset="0.3282" style="stop-color:#FEB38B"/>
								<stop  offset="0.5908" style="stop-color:#FCAD81"/>
								<stop  offset="0.8298" style="stop-color:#F9A370"/>
								<stop  offset="1" style="stop-color:#F5985F"/>
							</linearGradient>
							<path style="fill:url(#SVGID_00000165220818762335449510000003367370786407292580_);" d="M272.842,270.844L272.842,270.844
								c-2.15,0-3.892-1.743-3.892-3.892v-8.18h7.785v8.18C276.734,269.101,274.991,270.844,272.842,270.844z"/>
							<path style="fill:#FF7253;" d="M268.949,263.863c0.853,1.237,2.276,2.05,3.892,2.05c1.616,0,3.04-0.813,3.892-2.05v-5.091
								h-7.785V263.863z"/>
							<g>
								
									<linearGradient id="SVGID_00000137106409254173934690000011390656348069362049_" gradientUnits="userSpaceOnUse" x1="272.7786" y1="257.8272" x2="272.7786" y2="231.6871">
									<stop  offset="0" style="stop-color:#434A5B"/>
									<stop  offset="1" style="stop-color:#6164A1"/>
								</linearGradient>
								<path style="fill:url(#SVGID_00000137106409254173934690000011390656348069362049_);" d="M271.709,230.586l-19.194,8.329
									c-0.655,0.284-0.655,1.214,0,1.498l20.264,8.793l20.264-8.793c0.655-0.284,0.655-1.214,0-1.498l-19.194-8.329
									C273.166,230.29,272.391,230.29,271.709,230.586z"/>
								
									<linearGradient id="SVGID_00000038404155462173229510000016312068490904659356_" gradientUnits="userSpaceOnUse" x1="263.7341" y1="238.7983" x2="281.6602" y2="263.3947">
									<stop  offset="0" style="stop-color:#FFB58E"/>
									<stop  offset="0.3282" style="stop-color:#FEB38B"/>
									<stop  offset="0.5908" style="stop-color:#FCAD81"/>
									<stop  offset="0.8298" style="stop-color:#F9A370"/>
									<stop  offset="1" style="stop-color:#F5985F"/>
								</linearGradient>
								
									<circle style="fill:url(#SVGID_00000038404155462173229510000016312068490904659356_);" cx="272.866" cy="251.328" r="12.35"/>
							</g>
						</g>
						
							<linearGradient id="SVGID_00000022522230018858469680000000940548323779195550_" gradientUnits="userSpaceOnUse" x1="270.7374" y1="232.9507" x2="291.1903" y2="280.1614">
							<stop  offset="0" style="stop-color:#C56B01"/>
							<stop  offset="1" style="stop-color:#B32C0A"/>
						</linearGradient>
						<path style="fill:url(#SVGID_00000022522230018858469680000000940548323779195550_);" d="M267.728,243.24
							c0,0-0.461,5.075,6.459,6.459c6.92,1.384,5.844,9.842,9.842,11.687c0,0,4.613-12.918-1.538-17.531
							C276.34,239.242,267.728,243.24,267.728,243.24z"/>
						
							<linearGradient id="SVGID_00000096778203332093916760000011982627038781882004_" gradientUnits="userSpaceOnUse" x1="258.4194" y1="238.2872" x2="278.8722" y2="285.4978">
							<stop  offset="0" style="stop-color:#C56B01"/>
							<stop  offset="1" style="stop-color:#B32C0A"/>
						</linearGradient>
						<path style="fill:url(#SVGID_00000096778203332093916760000011982627038781882004_);" d="M268.035,244.47
							c0,0-0.769,2.922-3.998,3.845c-3.229,0.923-3.537,7.381-4.613,8.304c0,0-1.23-9.534,3.537-12.456
							C265.729,242.471,268.035,244.47,268.035,244.47z"/>
						
							<linearGradient id="SVGID_00000060028670061905861490000008452260619525377940_" gradientUnits="userSpaceOnUse" x1="272.8735" y1="235.0894" x2="272.8735" y2="249.5549">
							<stop  offset="0" style="stop-color:#39314F"/>
							<stop  offset="1" style="stop-color:#475377"/>
						</linearGradient>
						<path style="fill:url(#SVGID_00000060028670061905861490000008452260619525377940_);" d="M283.433,239.338
							c0-1.242-4.725-2.249-10.553-2.249s-10.553,1.007-10.553,2.249h-0.013v5.522h21.105v-5.46
							C283.421,239.379,283.433,239.359,283.433,239.338z"/>
					</g>
				</g>
			</g>
			<g>
				<path style="fill:#A1C2FF;" d="M370.675,288.605h-52.68c-3.373,0-6.108-2.735-6.108-6.108v-52.68
					c0-3.373,2.735-6.108,6.108-6.108h52.68c3.373,0,6.108,2.735,6.108,6.108v52.68
					C376.783,285.871,374.048,288.605,370.675,288.605z"/>
				<g>
					<defs>
						<path id="SVGID_00000168804116465926289100000001266699861694207902_" d="M370.675,288.605h-52.68
							c-3.373,0-6.108-2.735-6.108-6.108v-52.68c0-3.373,2.735-6.108,6.108-6.108h52.68c3.373,0,6.108,2.735,6.108,6.108v52.68
							C376.783,285.871,374.048,288.605,370.675,288.605z"/>
					</defs>
					<clipPath id="SVGID_00000101067649677276954710000012713119604978570631_">
						<use xlink:href="#SVGID_00000168804116465926289100000001266699861694207902_"  style="overflow:visible;"/>
					</clipPath>
					<g style="clip-path:url(#SVGID_00000101067649677276954710000012713119604978570631_);">
						
							<linearGradient id="SVGID_00000087382013736538453380000012043940256668668586_" gradientUnits="userSpaceOnUse" x1="341.7246" y1="265.3708" x2="338.9565" y2="304.4312">
							<stop  offset="0" style="stop-color:#FF6802"/>
							<stop  offset="1" style="stop-color:#FF8C57"/>
						</linearGradient>
						<path style="fill:url(#SVGID_00000087382013736538453380000012043940256668668586_);" d="M331.98,248.046
							c0,0-2.883,7.035-0.923,16.147c0,0,16.262-1.269,22.721,0l0.577-8.189L331.98,248.046z"/>
						<g>
							
								<linearGradient id="SVGID_00000181059537943497884460000001540274393138502824_" gradientUnits="userSpaceOnUse" x1="315.6646" y1="317.0688" x2="375.6227" y2="252.2003">
								<stop  offset="0" style="stop-color:#434A5B"/>
								<stop  offset="1" style="stop-color:#6164A1"/>
							</linearGradient>
							<path style="fill:url(#SVGID_00000181059537943497884460000001540274393138502824_);" d="M344.335,266.384
								c-13.504,0-24.451,10.947-24.451,24.451h48.902C368.786,277.331,357.839,266.384,344.335,266.384z"/>
							
								<linearGradient id="SVGID_00000031920760111336227080000005413814913232408213_" gradientUnits="userSpaceOnUse" x1="325.9564" y1="294.9375" x2="364.7066" y2="253.0137">
								<stop  offset="0" style="stop-color:#FF8D02"/>
								<stop  offset="1" style="stop-color:#FFC757"/>
							</linearGradient>
							<path style="fill:url(#SVGID_00000031920760111336227080000005413814913232408213_);" d="M364.274,275.017
								c-4.804-5.66-11.965-9.256-19.971-9.256c-7.497,0-14.253,3.155-19.026,8.204c4.306,6.378,11.601,10.573,19.876,10.573
								C352.964,284.538,359.899,280.8,364.274,275.017z"/>
							
								<linearGradient id="SVGID_00000003088458492523278060000011189350076007081368_" gradientUnits="userSpaceOnUse" x1="336.5583" y1="281.7702" x2="352.819" y2="264.1779">
								<stop  offset="0" style="stop-color:#9A2802"/>
								<stop  offset="1" style="stop-color:#FF5057"/>
							</linearGradient>
							<path style="fill:url(#SVGID_00000003088458492523278060000011189350076007081368_);" d="M362.695,273.325
								c-0.614-0.607-1.258-1.182-1.929-1.726c-4.001,4.427-9.599,6.938-15.638,6.938c-6.351,0-12.302-2.85-16.298-7.702
								c-0.696,0.512-1.366,1.056-2.008,1.633c4.485,5.453,11.17,8.658,18.306,8.658
								C351.914,281.127,358.203,278.303,362.695,273.325z"/>
							
								<linearGradient id="SVGID_00000168813383395985254660000017869959471826079106_" gradientUnits="userSpaceOnUse" x1="340.0972" y1="268.2763" x2="348.6095" y2="259.0668">
								<stop  offset="0" style="stop-color:#FFB58E"/>
								<stop  offset="0.3282" style="stop-color:#FEB38B"/>
								<stop  offset="0.5908" style="stop-color:#FCAD81"/>
								<stop  offset="0.8298" style="stop-color:#F9A370"/>
								<stop  offset="1" style="stop-color:#F5985F"/>
							</linearGradient>
							<path style="fill:url(#SVGID_00000168813383395985254660000017869959471826079106_);" d="M344.398,270.844L344.398,270.844
								c-2.15,0-3.892-1.743-3.892-3.892v-8.18h7.785v8.18C348.29,269.101,346.548,270.844,344.398,270.844z"/>
							<path style="fill:#FF7253;" d="M340.506,263.863c0.853,1.237,2.276,2.05,3.892,2.05c1.616,0,3.039-0.813,3.892-2.05v-5.091
								h-7.785V263.863z"/>
							<g>
								
									<linearGradient id="SVGID_00000063605720818403471680000009939939111612429991_" gradientUnits="userSpaceOnUse" x1="337.7594" y1="243.2562" x2="331.3497" y2="252.0108">
									<stop  offset="0" style="stop-color:#FFB58E"/>
									<stop  offset="0.3282" style="stop-color:#FEB38B"/>
									<stop  offset="0.5908" style="stop-color:#FCAD81"/>
									<stop  offset="0.8298" style="stop-color:#F9A370"/>
									<stop  offset="1" style="stop-color:#F5985F"/>
								</linearGradient>
								
									<circle style="fill:url(#SVGID_00000063605720818403471680000009939939111612429991_);" cx="331.907" cy="251.25" r="3.205"/>
								
									<linearGradient id="SVGID_00000029762970924260628640000000508057901789951909_" gradientUnits="userSpaceOnUse" x1="344.335" y1="257.8272" x2="344.335" y2="231.6871">
									<stop  offset="0" style="stop-color:#434A5B"/>
									<stop  offset="1" style="stop-color:#6164A1"/>
								</linearGradient>
								<path style="fill:url(#SVGID_00000029762970924260628640000000508057901789951909_);" d="M343.265,230.586l-19.194,8.329
									c-0.655,0.284-0.655,1.214,0,1.498l20.264,8.793l20.264-8.793c0.655-0.284,0.655-1.214,0-1.498l-19.194-8.329
									C344.722,230.29,343.948,230.29,343.265,230.586z"/>
								
									<linearGradient id="SVGID_00000153665620419397572430000004641031594666696348_" gradientUnits="userSpaceOnUse" x1="335.2905" y1="238.7983" x2="353.2166" y2="263.3947">
									<stop  offset="0" style="stop-color:#FFB58E"/>
									<stop  offset="0.3282" style="stop-color:#FEB38B"/>
									<stop  offset="0.5908" style="stop-color:#FCAD81"/>
									<stop  offset="0.8298" style="stop-color:#F9A370"/>
									<stop  offset="1" style="stop-color:#F5985F"/>
								</linearGradient>
								
									<circle style="fill:url(#SVGID_00000153665620419397572430000004641031594666696348_);" cx="344.423" cy="251.328" r="12.35"/>
							</g>
						</g>
						
							<linearGradient id="SVGID_00000083787514058111727690000008994160593105025952_" gradientUnits="userSpaceOnUse" x1="353.0031" y1="244.7285" x2="355.7712" y2="264.5662">
							<stop  offset="0" style="stop-color:#FF6802"/>
							<stop  offset="1" style="stop-color:#FF8C57"/>
						</linearGradient>
						<path style="fill:url(#SVGID_00000083787514058111727690000008994160593105025952_);" d="M346.973,244.24
							c0,0,6.459,6.343,4.383,20.414c0,0,6.228,1.615,8.65-2.422c2.307-4.152-1.066-14.56-5.031-17.372
							C354.975,244.86,350.779,242.279,346.973,244.24z"/>
						
							<linearGradient id="SVGID_00000078011650598842921210000016876135044550710153_" gradientUnits="userSpaceOnUse" x1="335.8275" y1="244.2606" x2="336.2949" y2="247.6101">
							<stop  offset="0" style="stop-color:#FF6802"/>
							<stop  offset="1" style="stop-color:#FF8C57"/>
						</linearGradient>
						<path style="fill:url(#SVGID_00000078011650598842921210000016876135044550710153_);" d="M340.168,244.009
							c0,0-2.191,4.383-8.189,4.037c0,0,0.231-2.768,2.768-3.921L340.168,244.009z"/>
						
							<linearGradient id="SVGID_00000134216735862506132660000010827509470420742274_" gradientUnits="userSpaceOnUse" x1="344.4299" y1="235.0894" x2="344.4299" y2="249.5549">
							<stop  offset="0" style="stop-color:#39314F"/>
							<stop  offset="1" style="stop-color:#475377"/>
						</linearGradient>
						<path style="fill:url(#SVGID_00000134216735862506132660000010827509470420742274_);" d="M354.99,239.338
							c0-1.242-4.725-2.249-10.553-2.249s-10.553,1.007-10.553,2.249h-0.013v5.522h21.105v-5.46
							C354.978,239.379,354.99,239.359,354.99,239.338z"/>
					</g>
				</g>
			</g>
		</g>
		<g>
			
				<linearGradient id="SVGID_00000064332156822065465700000005848716060690623377_" gradientUnits="userSpaceOnUse" x1="253.9887" y1="166.562" x2="235.1534" y2="114.3679">
				<stop  offset="0" style="stop-color:#FF8D02"/>
				<stop  offset="1" style="stop-color:#FFC757"/>
			</linearGradient>
			<path style="fill:url(#SVGID_00000064332156822065465700000005848716060690623377_);" d="M263.8,125.582
				c-0.495-2.901-2.65-5.247-5.513-5.931c-11.112-2.658-20.896-2.658-32.008,0c-2.862,0.685-5.018,3.03-5.512,5.931
				c-0.964,5.654-0.964,11.432,0,17.085c0.495,2.901,2.65,5.247,5.512,5.931c8.876,2.123,16.905,2.545,25.44,1.277
				c0.497,1.582,2.112,4.992,7.054,6.867l-1.547-7.904c0.353-0.08,0.704-0.154,1.06-0.239c2.862-0.685,5.018-3.03,5.513-5.931
				C264.763,137.014,264.763,131.236,263.8,125.582z"/>
			<g>
				<path style="fill:#FFFFFF;" d="M255.445,132.007h-26.021c-0.835,0-1.513-0.677-1.513-1.513l0,0c0-0.835,0.677-1.513,1.513-1.513
					h26.021c0.836,0,1.513,0.677,1.513,1.513l0,0C256.958,131.33,256.281,132.007,255.445,132.007z"/>
				<path style="fill:#FFFFFF;" d="M241.375,138.664h-11.952c-0.835,0-1.513-0.677-1.513-1.513l0,0c0-0.836,0.677-1.513,1.513-1.513
					h11.952c0.836,0,1.513,0.677,1.513,1.513l0,0C242.888,137.986,242.211,138.664,241.375,138.664z"/>
			</g>
		</g>
		<g>
			
				<linearGradient id="SVGID_00000054976016093225518290000003493714979648508343_" gradientUnits="userSpaceOnUse" x1="390.5218" y1="273.2546" x2="371.6866" y2="221.0606" gradientTransform="matrix(-1 0 0 1 769.41 0)">
				<stop  offset="0" style="stop-color:#FF3843"/>
				<stop  offset="1" style="stop-color:#FF8457"/>
			</linearGradient>
			<path style="fill:url(#SVGID_00000054976016093225518290000003493714979648508343_);" d="M369.077,232.275
				c0.495-2.901,2.65-5.247,5.512-5.931c11.112-2.658,20.896-2.658,32.008,0c2.862,0.685,5.018,3.03,5.512,5.931
				c0.964,5.654,0.964,11.432,0,17.085c-0.495,2.901-2.65,5.247-5.512,5.931c-8.876,2.123-16.905,2.545-25.44,1.277
				c-0.497,1.582-2.112,4.992-7.054,6.867l1.546-7.904c-0.353-0.08-0.704-0.154-1.06-0.239c-2.862-0.685-5.018-3.03-5.512-5.931
				C368.113,243.707,368.113,237.929,369.077,232.275z"/>
			<g>
				<path style="fill:#FFFFFF;" d="M403.453,238.7h-26.022c-0.835,0-1.513-0.677-1.513-1.513l0,0c0-0.836,0.677-1.513,1.513-1.513
					h26.022c0.836,0,1.513,0.677,1.513,1.513l0,0C404.966,238.022,404.289,238.7,403.453,238.7z"/>
				<path style="fill:#FFFFFF;" d="M389.383,245.356h-11.952c-0.835,0-1.513-0.677-1.513-1.513l0,0c0-0.836,0.677-1.513,1.513-1.513
					h11.952c0.836,0,1.513,0.677,1.513,1.513l0,0C390.896,244.679,390.219,245.356,389.383,245.356z"/>
			</g>
		</g>
		<path style="fill:#A1C2FF;" d="M215.029,310.35h-80.965c-2.925,0-5.297-2.371-5.297-5.297V166.58c0-2.925,2.372-5.297,5.297-5.297
			h80.965c2.925,0,5.297,2.371,5.297,5.297v138.473C220.326,307.978,217.955,310.35,215.029,310.35z"/>
		<g>
			<path style="fill:#E7E8FA;" d="M219.569,307.323h-90.046c-2.507,0-4.54-2.033-4.54-4.54V162.796c0-2.507,2.033-4.54,4.54-4.54
				h90.046c2.507,0,4.54,2.033,4.54,4.54v139.987C224.109,305.29,222.077,307.323,219.569,307.323z"/>
			<g>
				<path style="fill:#A1C2FF;" d="M204.189,214.293h-59.131c-1.382,0-2.502-1.12-2.502-2.502l0,0c0-1.382,1.12-2.502,2.502-2.502
					h59.131c1.382,0,2.502,1.12,2.502,2.502l0,0C206.691,213.173,205.571,214.293,204.189,214.293z"/>
				<path style="fill:#A1C2FF;" d="M204.189,248.748h-59.131c-1.382,0-2.502-1.12-2.502-2.502l0,0c0-1.382,1.12-2.502,2.502-2.502
					h59.131c1.382,0,2.502,1.12,2.502,2.502l0,0C206.691,247.628,205.571,248.748,204.189,248.748z"/>
				<path style="fill:#A1C2FF;" d="M212.149,226.119h-75.051c-1.382,0-2.502-1.12-2.502-2.502l0,0c0-1.382,1.12-2.502,2.502-2.502
					h75.051c1.382,0,2.502,1.12,2.502,2.502l0,0C214.651,224.999,213.531,226.119,212.149,226.119z"/>
				<path style="fill:#A1C2FF;" d="M212.149,236.524h-75.051c-1.382,0-2.502-1.12-2.502-2.502l0,0c0-1.382,1.12-2.502,2.502-2.502
					h75.051c1.382,0,2.502,1.12,2.502,2.502l0,0C214.651,235.404,213.531,236.524,212.149,236.524z"/>
			</g>
			
				<linearGradient id="SVGID_00000043453108085833711370000003954865438912432830_" gradientUnits="userSpaceOnUse" x1="160.8835" y1="155.1174" x2="193.4209" y2="252.7299">
				<stop  offset="0" style="stop-color:#FF8D02"/>
				<stop  offset="1" style="stop-color:#FFC757"/>
			</linearGradient>
			<circle style="fill:url(#SVGID_00000043453108085833711370000003954865438912432830_);" cx="172.867" cy="191.068" r="9.754"/>
			<g>
				<g>
					<g>
						
							<linearGradient id="SVGID_00000054262660384321309930000008951173285026805170_" gradientUnits="userSpaceOnUse" x1="190.2361" y1="283.7083" x2="197.4461" y2="326.9684" gradientTransform="matrix(0.9422 0.3351 -0.3351 0.9422 110.7018 -51.617)">
							<stop  offset="0" style="stop-color:#FF8D02"/>
							<stop  offset="1" style="stop-color:#FFC757"/>
						</linearGradient>
						<polygon style="fill:url(#SVGID_00000054262660384321309930000008951173285026805170_);" points="192.158,318.821 
							187.714,311.18 179.931,314.472 188.715,289.772 200.943,294.121 						"/>
					</g>
					<g>
						
							<linearGradient id="SVGID_00000155142843098622303270000015562705537881605549_" gradientUnits="userSpaceOnUse" x1="228.3774" y1="266.9305" x2="235.5874" y2="310.1907" gradientTransform="matrix(-0.9422 0.3351 0.3351 0.9422 325.3516 -51.617)">
							<stop  offset="0" style="stop-color:#FF8D02"/>
							<stop  offset="1" style="stop-color:#FFC757"/>
						</linearGradient>
						<polygon style="fill:url(#SVGID_00000155142843098622303270000015562705537881605549_);" points="202.336,315.794 
							206.78,308.153 214.564,311.445 205.779,286.745 193.551,291.094 						"/>
					</g>
					
						<linearGradient id="SVGID_00000030467686353758105160000017232271478118798015_" gradientUnits="userSpaceOnUse" x1="176.5862" y1="219.2344" x2="234.7394" y2="393.6944">
						<stop  offset="0" style="stop-color:#FF3843"/>
						<stop  offset="1" style="stop-color:#FF8457"/>
					</linearGradient>
					<path style="fill:url(#SVGID_00000030467686353758105160000017232271478118798015_);" d="M201.048,266.942L201.048,266.942
						c0.957,1.328,2.664,1.882,4.218,1.37l0,0c2.433-0.801,4.936,1.017,4.926,3.579v0c-0.007,1.637,1.048,3.089,2.607,3.588l0,0
						c2.439,0.782,3.395,3.724,1.881,5.79l0,0c-0.967,1.32-0.967,3.115,0,4.435l0,0c1.514,2.066,0.558,5.009-1.881,5.79l0,0
						c-1.559,0.499-2.614,1.952-2.607,3.588l0,0c0.01,2.562-2.493,4.38-4.926,3.579l0,0c-1.554-0.512-3.261,0.043-4.218,1.37l0,0
						c-1.497,2.078-4.591,2.078-6.089,0l0,0c-0.957-1.328-2.664-1.883-4.218-1.37l0,0c-2.433,0.801-4.936-1.017-4.926-3.579l0,0
						c0.007-1.637-1.048-3.089-2.607-3.588l0,0c-2.439-0.782-3.396-3.724-1.882-5.79l0,0c0.967-1.32,0.967-3.115,0-4.435l0,0
						c-1.514-2.066-0.558-5.009,1.882-5.79l0,0c1.558-0.499,2.613-1.952,2.607-3.588v0c-0.01-2.562,2.493-4.38,4.926-3.579l0,0
						c1.554,0.512,3.261-0.043,4.218-1.37l0,0C196.457,264.864,199.551,264.864,201.048,266.942z"/>
				</g>
				<g>
					
						<linearGradient id="SVGID_00000023979773029379514930000010718794621386931610_" gradientUnits="userSpaceOnUse" x1="189.2321" y1="283.5089" x2="207.2733" y2="283.5089">
						<stop  offset="0" style="stop-color:#FF8D02"/>
						<stop  offset="1" style="stop-color:#FFC757"/>
					</linearGradient>
					<path style="fill:url(#SVGID_00000023979773029379514930000010718794621386931610_);" d="M199.616,275.85l1.147,3.529
						c0.192,0.591,0.742,0.991,1.364,0.991h3.71c1.389,0,1.966,1.777,0.843,2.594l-3.002,2.181
						c-0.503,0.365-0.713,1.012-0.521,1.603l1.147,3.529c0.429,1.321-1.083,2.419-2.206,1.603l-3.002-2.181
						c-0.503-0.365-1.183-0.365-1.686,0l-3.002,2.181c-1.124,0.816-2.635-0.282-2.206-1.603l1.146-3.529
						c0.192-0.591-0.018-1.238-0.521-1.603l-3.002-2.181c-1.124-0.816-0.546-2.594,0.843-2.594h3.71c0.621,0,1.172-0.4,1.363-0.991
						l1.147-3.529C197.318,274.529,199.187,274.529,199.616,275.85z"/>
				</g>
			</g>
		</g>
		<path style="fill:#A1C2FF;" d="M98.338,200.53c56.111-15.465,75.073-71.785,75.073-71.785l-75.073,26.113V200.53z"/>
		<g>
			<g>
				
					<linearGradient id="SVGID_00000147200532068531854980000001757656335708845746_" gradientUnits="userSpaceOnUse" x1="71.0765" y1="139.8634" x2="172.3593" y2="139.8634" gradientTransform="matrix(0.8221 -0.5693 0.5693 0.8221 -52.7055 96.8367)">
					<stop  offset="0" style="stop-color:#39314F"/>
					<stop  offset="1" style="stop-color:#475377"/>
				</linearGradient>
				<path style="fill:url(#SVGID_00000147200532068531854980000001757656335708845746_);" d="M175.175,123.167L147.47,98.771
					L78.82,146.31l13.09,34.516l0.157-0.109c0.09,0.335,0.217,0.649,0.407,0.924c3.708,5.355,25.354-3.211,48.347-19.133
					s38.626-33.171,34.918-38.526c-0.19-0.275-0.439-0.504-0.721-0.706L175.175,123.167z"/>
				
					<linearGradient id="SVGID_00000059284557378816270850000009823500507431491753_" gradientUnits="userSpaceOnUse" x1="90.9606" y1="-4.7602" x2="149.2242" y2="199.6109" gradientTransform="matrix(0.8221 -0.5693 0.5693 0.8221 -52.7055 96.8367)">
					<stop  offset="0" style="stop-color:#434A5B"/>
					<stop  offset="1" style="stop-color:#6164A1"/>
				</linearGradient>
				<path style="fill:url(#SVGID_00000059284557378816270850000009823500507431491753_);" d="M82.343,86.248l-50.494,73.965
					c-1.724,2.526,0.313,5.467,3.284,4.742l91.85-22.431l53.308-78.089c1.724-2.525-0.313-5.467-3.283-4.742L90.008,80.941
					C86.914,81.696,84.139,83.618,82.343,86.248z"/>
			</g>
			
				<linearGradient id="SVGID_00000090280554999824031940000003774751511367726225_" gradientUnits="userSpaceOnUse" x1="65.9019" y1="165.4084" x2="93.9637" y2="165.4084">
				<stop  offset="0" style="stop-color:#434A5B"/>
				<stop  offset="1" style="stop-color:#6164A1"/>
			</linearGradient>
			
				<path style="fill:none;stroke:url(#SVGID_00000090280554999824031940000003774751511367726225_);stroke-width:2;stroke-miterlimit:10;" d="
				M93.203,109.828c0,0-21.944,25.727-24.214,46.915c-2.27,21.187,6.81,51.455-2.27,64.318"/>
			<g>
				
					<linearGradient id="SVGID_00000071525796219747278240000001687630978727777170_" gradientUnits="userSpaceOnUse" x1="61.5588" y1="252.7165" x2="74.7669" y2="252.7165" gradientTransform="matrix(0.9009 0.4341 -0.4341 0.9009 113.6906 -32.4635)">
					<stop  offset="0" style="stop-color:#FF8D02"/>
					<stop  offset="1" style="stop-color:#FFC757"/>
				</linearGradient>
				<path style="fill:url(#SVGID_00000071525796219747278240000001687630978727777170_);" d="M61.841,235.256
					c-3.143-1.251-4.707-4.812-3.929-8.104c1.203-5.09,4.039-13.204,9.898-13.208c7.129,1.081,0.78,20.974,0.064,20.628
					C67.372,234.331,65.106,236.555,61.841,235.256z"/>
			</g>
		</g>
		
			<line style="fill:none;stroke:#A1C2FF;stroke-width:2;stroke-linecap:round;stroke-linejoin:round;stroke-miterlimit:10;" x1="275.943" y1="115.503" x2="349.152" y2="115.503"/>
		
			<linearGradient id="SVGID_00000152965446962575973740000006353676278748009865_" gradientUnits="userSpaceOnUse" x1="416.4393" y1="120.1176" x2="422.1144" y2="196.7323">
			<stop  offset="0" style="stop-color:#6060E7"/>
			<stop  offset="1" style="stop-color:#8182EE"/>
		</linearGradient>
		<path style="fill:url(#SVGID_00000152965446962575973740000006353676278748009865_);" d="M426.523,169.417
			c0,3.552-2.88,6.432-6.432,6.432c-3.552,0-6.432-2.88-6.432-6.432s2.88-6.432,6.432-6.432
			C423.643,162.985,426.523,165.865,426.523,169.417z"/>
		
			<linearGradient id="SVGID_00000041269218680492235690000014988788216152509064_" gradientUnits="userSpaceOnUse" x1="356.6209" y1="94.3209" x2="359.1247" y2="128.1217">
			<stop  offset="0" style="stop-color:#6060E7"/>
			<stop  offset="1" style="stop-color:#8182EE"/>
		</linearGradient>
		<path style="fill:url(#SVGID_00000041269218680492235690000014988788216152509064_);" d="M361.07,116.071
			c0,1.567-1.27,2.838-2.837,2.838c-1.567,0-2.838-1.271-2.838-2.838s1.27-2.838,2.838-2.838
			C359.799,113.233,361.07,114.504,361.07,116.071z"/>
		
			<line style="fill:none;stroke:#6060E7;stroke-width:2;stroke-linecap:round;stroke-linejoin:round;stroke-miterlimit:10;stroke-dasharray:0,5;" x1="89.419" y1="251.328" x2="89.419" y2="293.703"/>
		
			<linearGradient id="SVGID_00000115506800497662437700000016327220199322209718_" gradientUnits="userSpaceOnUse" x1="55.2441" y1="244.9184" x2="59.5534" y2="303.0934">
			<stop  offset="0" style="stop-color:#6060E7"/>
			<stop  offset="1" style="stop-color:#8182EE"/>
		</linearGradient>
		
			<rect x="45.532" y="278.38" style="fill:url(#SVGID_00000115506800497662437700000016327220199322209718_);" width="24.971" height="7.945"/>
		<rect x="421.604" y="252.842" style="fill:#8182EE;" width="7.378" height="26.106"/>
		<rect x="421.604" y="283.677" style="fill:#8182EE;" width="7.378" height="7.945"/>
		<rect x="421.604" y="296.919" style="fill:#8182EE;" width="7.378" height="7.945"/>
		<rect x="401.931" y="337.591" style="fill:none;stroke:#8182EE;stroke-miterlimit:10;" width="37.078" height="7.567"/>
	</g>
</g>
</svg>
